<?xml version="1.0" encoding="UTF-8"?>
<svg id="Cardone_Capital" data-name="Cardone Capital" xmlns="http://www.w3.org/2000/svg" viewBox="0 0 849.56 243.08">
  <defs>
    <style>
      .cls-1 {
        fill: #fff;
      }
    </style>
  </defs>
  <path class="cls-1" d="M104.08,205.64c-46.43,0-84.07-37.65-84.07-84.1S57.65,37.44,104.08,37.44c36.05,0,66.8,22.7,78.75,54.58h21.39c-10.92-37.52-42.38-66.3-81.39-73.35L104.15,0l-18.69,18.69C36.86,27.52,0,70.05,0,121.2s36.43,93.2,84.62,102.35l19.53,19.53,19.51-19.52c38.63-7.31,69.71-35.94,80.55-73.19h-21.13c-11.76,32.25-42.69,55.27-79,55.27Z"/>
  <path class="cls-1" d="M104.18,178.5c-31.65,0-57.3-25.65-57.3-57.3s25.65-57.3,57.3-57.3c20.99,0,39.34,11.29,49.32,28.13h24.96c-11.74-29.58-40.61-50.5-74.37-50.5-44.18,0-79.99,35.82-79.99,80.01s35.81,80.01,79.99,80.01c34.01,0,63.07-21.24,74.64-51.18h-25.22c-9.98,16.84-28.33,28.13-49.32,28.13Z"/>
  <g>
    <path class="cls-1" d="M255.44,196.71c-11.26,0-19.64-8.77-19.64-19.92s8.22-20.03,19.92-20.03c7.12,0,11.42,2.48,15.12,6.01l-4.36,5.02c-3.09-2.87-6.4-4.8-10.82-4.8-7.39,0-12.75,6.07-12.75,13.68s5.35,13.79,12.75,13.79c4.75,0,7.78-1.93,11.09-5.02l4.36,4.41c-4.03,4.19-8.44,6.84-15.67,6.84Z"/>
    <path class="cls-1" d="M372.58,196.04h-7.17l-3.92-9.33h-18.26l-3.97,9.33h-6.95l17-38.9h6.29l17,38.9ZM352.33,165.25l-6.62,15.45h13.3l-6.68-15.45Z"/>
    <path class="cls-1" d="M451.04,183.63h-7.67v12.42h-6.79v-38.63h15.23c8.99,0,14.68,5.08,14.68,12.97,0,8.72-6.95,13.24-15.45,13.24ZM451.26,163.6h-7.89v13.91h7.89c5.13,0,8.33-2.81,8.33-6.95,0-4.58-3.26-6.95-8.33-6.95Z"/>
    <path class="cls-1" d="M538,157.42v38.63h-6.79v-38.63h6.79Z"/>
    <path class="cls-1" d="M622.03,196.04h-6.84v-32.33h-12.25v-6.29h31.34v6.29h-12.25v32.33Z"/>
    <path class="cls-1" d="M730.85,196.04h-7.17l-3.92-9.33h-18.26l-3.97,9.33h-6.95l17-38.9h6.29l16.99,38.9ZM710.59,165.25l-6.62,15.45h13.3l-6.68-15.45Z"/>
    <path class="cls-1" d="M794.85,157.42h6.79v32.45h20.31v6.18h-27.09v-38.63Z"/>
    <g>
      <path class="cls-1" d="M231.82,89.29v-.23c0-23.76,18.29-42.4,42.99-42.4,16.66,0,27.38,6.99,34.6,17.01l-17.01,13.16c-4.66-5.82-10.02-9.55-17.82-9.55-11.42,0-19.45,9.67-19.45,21.55v.23c0,12.23,8.04,21.78,19.45,21.78,8.5,0,13.51-3.96,18.41-9.9l17.01,12.12c-7.69,10.6-18.06,18.41-36.11,18.41-23.3,0-42.05-17.82-42.05-42.17Z"/>
      <path class="cls-1" d="M344.82,47.7h21.78l34.71,82.13h-24.23l-5.94-14.56h-31.45l-5.82,14.56h-23.76l34.71-82.13ZM364.62,97.67l-9.09-23.18-9.2,23.18h18.29Z"/>
      <path class="cls-1" d="M406.91,48.28h38.56c12.46,0,21.09,3.26,26.56,8.85,4.78,4.66,7.22,10.95,7.22,18.99v.23c0,12.46-6.64,20.74-16.78,25.05l19.45,28.42h-26.09l-16.43-24.7h-9.9v24.7h-22.6V48.28ZM444.42,87.42c7.69,0,12.12-3.73,12.12-9.67v-.23c0-6.41-4.66-9.67-12.23-9.67h-14.79v19.57h14.91Z"/>
      <path class="cls-1" d="M488.33,48.28h31.45c29.12,0,46.01,16.77,46.01,40.31v.23c0,23.53-17.12,41.01-46.48,41.01h-30.99V48.28ZM520.14,109.79c13.51,0,22.48-7.46,22.48-20.62v-.23c0-13.05-8.97-20.62-22.48-20.62h-9.2v41.47h9.2Z"/>
      <path class="cls-1" d="M572.32,89.29v-.23c0-23.42,18.87-42.4,44.03-42.4s43.8,18.76,43.8,42.17v.23c0,23.42-18.87,42.4-44.03,42.4s-43.8-18.76-43.8-42.17ZM637.09,89.29v-.23c0-11.77-8.5-22.02-20.97-22.02s-20.62,10.02-20.62,21.78v.23c0,11.77,8.5,22.02,20.85,22.02s20.74-10.02,20.74-21.78Z"/>
      <path class="cls-1" d="M669.59,48.28h21.09l33.55,43.1v-43.1h22.37v81.55h-19.8l-34.83-44.73v44.73h-22.37V48.28Z"/>
      <path class="cls-1" d="M758.71,48.28h65.59v19.22h-43.22v12.35h39.14v17.82h-39.14v12.93h43.8v19.22h-66.17V48.28Z"/>
    </g>
    <path class="cls-1" d="M847.36,61.3c-1.46,1.47-3.23,2.21-5.31,2.21s-3.84-.74-5.3-2.21c-1.45-1.46-2.18-3.24-2.18-5.32s.73-3.83,2.2-5.29,3.22-2.19,5.28-2.19,3.85.73,5.31,2.19c1.46,1.46,2.2,3.22,2.2,5.29s-.73,3.85-2.2,5.32ZM837.5,51.43c-1.25,1.26-1.88,2.78-1.88,4.57s.62,3.33,1.87,4.6c1.25,1.27,2.77,1.9,4.57,1.9s3.31-.63,4.57-1.9c1.25-1.27,1.88-2.8,1.88-4.6s-.63-3.31-1.88-4.57c-1.26-1.27-2.78-1.9-4.57-1.9s-3.3.63-4.55,1.9ZM841.91,51.84c1.02,0,1.77.1,2.25.3.85.35,1.28,1.05,1.28,2.09,0,.74-.27,1.28-.8,1.63-.28.18-.68.32-1.19.4.64.1,1.11.37,1.41.81.3.44.45.86.45,1.27v.6c0,.19,0,.39.02.61.01.22.04.36.07.43l.05.1h-1.36s-.01-.05-.02-.08c0-.03-.01-.06-.02-.09l-.03-.26v-.65c0-.95-.26-1.58-.78-1.88-.31-.18-.84-.26-1.61-.26h-1.14v3.24h-1.45v-8.23h2.88ZM843.48,53.14c-.37-.2-.95-.31-1.76-.31h-1.24v2.98h1.31c.61,0,1.08-.06,1.38-.18.57-.22.85-.65.85-1.29,0-.6-.18-1-.55-1.21Z"/>
  </g>
</svg>